<svg xmlns="http://www.w3.org/2000/svg" xmlns:xlink="http://www.w3.org/1999/xlink" width="250" zoomAndPan="magnify" viewBox="0 0 187.5 225" height="300" preserveAspectRatio="xMidYMid meet" version="1.0"><defs><clipPath id="c9d907dc3e"><path d="M 3.476562 111 L 184.226562 111 L 184.226562 206.734375 L 3.476562 206.734375 Z M 3.476562 111 " clip-rule="nonzero"/></clipPath><clipPath id="abb4bbe2cc"><path d="M 3.476562 82 L 184.226562 82 L 184.226562 151 L 3.476562 151 Z M 3.476562 82 " clip-rule="nonzero"/></clipPath><clipPath id="648a52de23"><path d="M 71 13.359375 L 132 13.359375 L 132 130 L 71 130 Z M 71 13.359375 " clip-rule="nonzero"/></clipPath></defs><path fill="#ed2f3f" d="M 4.21875 116.808594 C 4.21875 135.15625 23.496094 205.886719 93.851562 205.886719 C 177.703125 205.886719 183.484375 135.15625 183.484375 116.808594 C 183.484375 98.460938 133.242188 139.441406 93.851562 139.441406 C 54.464844 139.441406 4.21875 98.460938 4.21875 116.808594 " fill-opacity="1" fill-rule="nonzero"/><g clip-path="url(#c9d907dc3e)"><path fill="#393536" d="M 4.21875 116.808594 L 3.476562 116.808594 C 3.480469 121.515625 4.699219 129.414062 7.621094 138.691406 C 12.011719 152.59375 20.242188 169.554688 34.054688 183.074219 C 47.859375 196.589844 67.277344 206.640625 93.851562 206.632812 C 114.917969 206.632812 131.140625 202.1875 143.59375 195.199219 C 152.9375 189.960938 160.160156 183.292969 165.722656 176.035156 C 174.066406 165.148438 178.6875 152.933594 181.226562 142.152344 C 183.769531 131.371094 184.226562 122.011719 184.230469 116.808594 C 184.230469 115.910156 184.117188 115.113281 183.878906 114.414062 C 183.53125 113.367188 182.863281 112.546875 181.972656 112.046875 C 181.085938 111.542969 180.019531 111.339844 178.816406 111.335938 C 177.019531 111.339844 174.890625 111.789062 172.429688 112.546875 C 168.132812 113.875 162.839844 116.175781 156.851562 118.878906 C 147.871094 122.933594 137.34375 127.894531 126.445312 131.835938 C 115.546875 135.777344 104.277344 138.699219 93.851562 138.695312 C 77.96875 138.703125 60.128906 131.914062 44.609375 125.078125 C 36.84375 121.664062 29.660156 118.246094 23.558594 115.671875 C 20.507812 114.382812 17.730469 113.308594 15.273438 112.546875 C 12.8125 111.789062 10.683594 111.339844 8.890625 111.335938 C 8.085938 111.335938 7.347656 111.429688 6.675781 111.640625 C 5.675781 111.945312 4.824219 112.554688 4.277344 113.449219 C 3.726562 114.335938 3.476562 115.460938 3.476562 116.808594 L 4.964844 116.808594 C 4.964844 116.03125 5.0625 115.398438 5.234375 114.894531 C 5.496094 114.136719 5.890625 113.671875 6.46875 113.335938 C 7.046875 113.007812 7.851562 112.824219 8.890625 112.824219 C 10.433594 112.824219 12.453125 113.230469 14.832031 113.96875 C 19 115.253906 24.269531 117.539062 30.242188 120.234375 C 39.203125 124.28125 49.769531 129.261719 60.753906 133.234375 C 71.742188 137.207031 83.152344 140.179688 93.851562 140.183594 C 110.152344 140.175781 128.117188 133.289062 143.695312 126.441406 C 151.484375 123.015625 158.671875 119.597656 164.722656 117.042969 C 167.75 115.765625 170.492188 114.703125 172.871094 113.96875 C 175.25 113.230469 177.269531 112.824219 178.816406 112.824219 C 179.503906 112.824219 180.097656 112.90625 180.582031 113.058594 C 181.3125 113.292969 181.800781 113.65625 182.160156 114.230469 C 182.519531 114.804688 182.742188 115.640625 182.742188 116.808594 C 182.746094 125.90625 181.292969 148.0625 169.472656 167.847656 C 163.5625 177.742188 155.074219 187.050781 142.867188 193.902344 C 130.65625 200.75 114.710938 205.144531 93.851562 205.144531 C 76.386719 205.140625 62.136719 200.761719 50.546875 193.910156 C 33.164062 183.632812 21.757812 167.769531 14.703125 152.742188 C 11.179688 145.230469 8.738281 137.929688 7.1875 131.664062 C 5.632812 125.398438 4.964844 120.15625 4.964844 116.808594 L 4.21875 116.808594 " fill-opacity="1" fill-rule="nonzero"/></g><path fill="#434547" d="M 4.21875 116.808594 C 4.21875 135.15625 44.351562 150.035156 93.851562 150.035156 C 143.355469 150.035156 183.484375 135.15625 183.484375 116.808594 C 183.484375 98.460938 143.355469 83.585938 93.851562 83.585938 C 44.351562 83.585938 4.21875 98.460938 4.21875 116.808594 " fill-opacity="1" fill-rule="nonzero"/><g clip-path="url(#abb4bbe2cc)"><path fill="#393536" d="M 4.21875 116.808594 L 3.476562 116.808594 C 3.476562 119.238281 4.144531 121.605469 5.390625 123.863281 C 7.574219 127.8125 11.5 131.429688 16.808594 134.671875 C 24.777344 139.527344 35.886719 143.542969 49.082031 146.359375 C 62.277344 149.171875 77.5625 150.777344 93.851562 150.777344 C 118.679688 150.777344 141.15625 147.054688 157.488281 141 C 165.65625 137.96875 172.292969 134.359375 176.929688 130.300781 C 179.25 128.269531 181.070312 126.121094 182.316406 123.863281 C 183.558594 121.605469 184.230469 119.238281 184.230469 116.808594 C 184.230469 114.378906 183.558594 112.007812 182.316406 109.753906 C 180.132812 105.804688 176.207031 102.1875 170.894531 98.945312 C 162.925781 94.089844 151.820312 90.074219 138.621094 87.257812 C 125.425781 84.445312 110.144531 82.839844 93.851562 82.839844 C 69.023438 82.84375 46.546875 86.566406 30.214844 92.617188 C 22.046875 95.648438 15.410156 99.257812 10.773438 103.316406 C 8.457031 105.347656 6.636719 107.496094 5.390625 109.753906 C 4.144531 112.007812 3.476562 114.378906 3.476562 116.808594 L 4.964844 116.808594 C 4.964844 114.652344 5.550781 112.542969 6.695312 110.472656 C 8.6875 106.851562 12.414062 103.371094 17.585938 100.214844 C 25.335938 95.484375 36.3125 91.5 49.390625 88.714844 C 62.472656 85.925781 77.660156 84.328125 93.851562 84.328125 C 118.527344 84.324219 140.867188 88.042969 156.972656 94.011719 C 165.023438 96.996094 171.515625 100.546875 175.949219 104.4375 C 178.167969 106.378906 179.871094 108.402344 181.011719 110.472656 C 182.152344 112.542969 182.738281 114.652344 182.742188 116.808594 C 182.738281 118.964844 182.152344 121.074219 181.011719 123.144531 C 179.015625 126.765625 175.289062 130.25 170.121094 133.402344 C 162.367188 138.132812 151.390625 142.117188 138.3125 144.90625 C 125.230469 147.691406 110.046875 149.289062 93.851562 149.289062 C 69.175781 149.292969 46.835938 145.578125 30.730469 139.605469 C 22.679688 136.621094 16.1875 133.070312 11.753906 129.179688 C 9.539062 127.238281 7.835938 125.214844 6.695312 123.144531 C 5.550781 121.074219 4.964844 118.964844 4.964844 116.808594 L 4.21875 116.808594 " fill-opacity="1" fill-rule="nonzero"/></g><path fill="#ffffff" d="M 13.859375 116.808594 C 13.859375 133.183594 49.671875 146.460938 93.851562 146.460938 C 138.035156 146.460938 173.847656 133.183594 173.847656 116.808594 C 173.847656 100.433594 138.035156 87.15625 93.851562 87.15625 C 49.671875 87.15625 13.859375 100.433594 13.859375 116.808594 " fill-opacity="1" fill-rule="nonzero"/><path fill="#393536" d="M 13.859375 116.808594 L 13.113281 116.808594 C 13.113281 118.992188 13.714844 121.121094 14.832031 123.144531 C 16.792969 126.6875 20.308594 129.921875 25.054688 132.820312 C 32.175781 137.160156 42.09375 140.746094 53.878906 143.257812 C 65.664062 145.769531 79.308594 147.203125 93.851562 147.203125 C 116.019531 147.203125 136.085938 143.878906 150.675781 138.472656 C 157.972656 135.765625 163.902344 132.542969 168.050781 128.910156 C 170.125 127.089844 171.757812 125.167969 172.871094 123.144531 C 173.992188 121.121094 174.59375 118.992188 174.589844 116.808594 C 174.59375 114.625 173.992188 112.496094 172.871094 110.472656 C 170.914062 106.933594 167.398438 103.695312 162.652344 100.796875 C 155.53125 96.457031 145.609375 92.871094 133.828125 90.359375 C 122.042969 87.847656 108.398438 86.414062 93.851562 86.414062 C 71.6875 86.414062 51.621094 89.738281 37.03125 95.144531 C 29.734375 97.851562 23.804688 101.074219 19.652344 104.707031 C 17.578125 106.523438 15.949219 108.449219 14.832031 110.472656 C 13.714844 112.496094 13.113281 114.625 13.113281 116.808594 L 14.605469 116.808594 C 14.605469 114.898438 15.125 113.03125 16.136719 111.191406 C 17.90625 107.976562 21.21875 104.875 25.828125 102.066406 C 32.734375 97.851562 42.523438 94.296875 54.191406 91.8125 C 65.859375 89.324219 79.40625 87.898438 93.851562 87.898438 C 115.867188 87.898438 135.796875 91.210938 150.15625 96.539062 C 157.339844 99.199219 163.125 102.363281 167.070312 105.824219 C 169.042969 107.554688 170.554688 109.355469 171.570312 111.191406 C 172.582031 113.03125 173.101562 114.898438 173.101562 116.808594 C 173.101562 118.71875 172.582031 120.589844 171.570312 122.425781 C 169.800781 125.640625 166.484375 128.742188 161.875 131.550781 C 154.96875 135.765625 145.179688 139.320312 133.515625 141.804688 C 121.847656 144.289062 108.300781 145.714844 93.851562 145.714844 C 71.839844 145.714844 51.910156 142.402344 37.546875 137.078125 C 30.367188 134.417969 24.582031 131.253906 20.636719 127.792969 C 18.664062 126.0625 17.148438 124.261719 16.136719 122.425781 C 15.125 120.589844 14.605469 118.71875 14.605469 116.808594 L 13.859375 116.808594 " fill-opacity="1" fill-rule="nonzero"/><path fill="#434547" d="M 164.761719 130.535156 C 151.398438 139.996094 124.667969 146.460938 93.851562 146.460938 C 63.035156 146.460938 36.308594 139.996094 22.945312 130.535156 C 36.308594 121.066406 63.035156 114.605469 93.851562 114.605469 C 124.667969 114.605469 151.398438 121.066406 164.761719 130.535156 " fill-opacity="1" fill-rule="nonzero"/><path fill="#393536" d="M 164.761719 130.535156 L 164.332031 129.925781 C 157.773438 134.574219 147.828125 138.539062 135.683594 141.320312 C 123.542969 144.105469 109.210938 145.714844 93.851562 145.714844 C 78.496094 145.714844 64.160156 144.105469 52.019531 141.320312 C 39.878906 138.539062 29.929688 134.574219 23.375 129.925781 L 22.945312 130.535156 L 23.378906 131.140625 C 29.929688 126.492188 39.878906 122.527344 52.019531 119.742188 C 64.160156 116.957031 78.496094 115.347656 93.851562 115.347656 C 109.210938 115.347656 123.542969 116.957031 135.683594 119.742188 C 147.828125 122.527344 157.773438 126.492188 164.332031 131.140625 L 164.761719 130.535156 L 164.332031 129.925781 L 164.761719 130.535156 L 165.191406 129.925781 C 158.386719 125.109375 148.285156 121.109375 136.019531 118.292969 C 123.75 115.480469 109.3125 113.859375 93.851562 113.859375 C 78.390625 113.859375 63.953125 115.480469 51.6875 118.292969 C 39.417969 121.109375 29.320312 125.109375 22.515625 129.925781 C 22.320312 130.070312 22.199219 130.292969 22.199219 130.535156 C 22.199219 130.777344 22.320312 131.003906 22.515625 131.140625 C 29.320312 135.960938 39.417969 139.957031 51.6875 142.773438 C 63.953125 145.582031 78.390625 147.203125 93.851562 147.203125 C 109.3125 147.203125 123.75 145.582031 136.019531 142.773438 C 148.285156 139.957031 158.386719 135.960938 165.191406 131.140625 C 165.386719 131.003906 165.503906 130.777344 165.503906 130.535156 C 165.503906 130.292969 165.390625 130.070312 165.191406 129.925781 L 164.761719 130.535156 " fill-opacity="1" fill-rule="nonzero"/><path fill="#7d7d7e" d="M 55.695312 139.167969 C 50.792969 138.039062 46.832031 136.695312 44.132812 135.253906 C 42.738281 134.511719 41.683594 133.738281 41.011719 132.992188 C 40.671875 132.621094 40.429688 132.253906 40.273438 131.910156 C 40.117188 131.558594 40.042969 131.230469 40.042969 130.894531 C 40.042969 130.238281 40.332031 129.550781 41.011719 128.800781 C 41.597656 128.148438 42.480469 127.472656 43.625 126.816406 C 45.628906 125.667969 48.433594 124.574219 51.878906 123.597656 C 53.074219 123.257812 54.351562 122.933594 55.695312 122.621094 C 53.429688 123.421875 51.496094 124.300781 49.941406 125.246094 C 48.628906 126.050781 47.578125 126.902344 46.835938 127.839844 C 46.097656 128.769531 45.660156 129.808594 45.660156 130.894531 C 45.660156 131.984375 46.097656 133.023438 46.835938 133.953125 C 48.140625 135.582031 50.363281 136.988281 53.34375 138.257812 C 54.082031 138.570312 54.867188 138.875 55.695312 139.167969 " fill-opacity="1" fill-rule="nonzero"/><path fill="#464444" d="M 96.332031 144.519531 C 96.28125 144.519531 96.226562 144.519531 96.179688 144.519531 C 78.097656 144.507812 61.996094 142.609375 51.472656 139.621094 C 47.953125 138.621094 45.050781 137.503906 42.882812 136.261719 C 41.648438 135.554688 40.644531 134.804688 39.90625 133.992188 C 39.0625 133.066406 38.554688 132.015625 38.554688 130.894531 C 38.554688 129.777344 39.0625 128.726562 39.90625 127.800781 C 40.753906 126.871094 41.9375 126.023438 43.429688 125.226562 C 46.414062 123.636719 50.640625 122.238281 55.839844 121.0625 C 66.238281 118.714844 80.535156 117.273438 96.332031 117.273438 C 96.136719 117.273438 95.941406 117.347656 95.804688 117.488281 C 95.667969 117.628906 95.589844 117.816406 95.589844 118.015625 C 95.589844 118.210938 95.667969 118.402344 95.804688 118.539062 C 95.941406 118.679688 96.136719 118.757812 96.332031 118.757812 C 96.332031 118.757812 96.332031 118.757812 96.328125 118.757812 C 87.316406 118.757812 78.867188 119.378906 71.589844 120.457031 C 64.316406 121.535156 58.210938 123.078125 53.925781 124.902344 C 51.066406 126.109375 49.027344 127.460938 48.003906 128.761719 C 47.414062 129.507812 47.152344 130.207031 47.148438 130.894531 C 47.152344 131.585938 47.414062 132.28125 48.003906 133.03125 C 48.59375 133.773438 49.503906 134.535156 50.714844 135.273438 C 53.140625 136.753906 56.742188 138.128906 61.214844 139.28125 C 70.15625 141.589844 82.578125 143.03125 96.292969 143.03125 C 96.300781 143.03125 96.3125 143.03125 96.320312 143.03125 C 96.324219 143.03125 96.328125 143.03125 96.332031 143.03125 C 96.136719 143.03125 95.941406 143.109375 95.804688 143.25 C 95.667969 143.386719 95.589844 143.578125 95.589844 143.773438 C 95.589844 143.972656 95.667969 144.164062 95.804688 144.300781 C 95.941406 144.441406 96.136719 144.519531 96.332031 144.519531 M 55.695312 122.621094 C 54.351562 122.933594 53.074219 123.257812 51.878906 123.597656 C 48.433594 124.574219 45.628906 125.667969 43.625 126.816406 C 42.480469 127.472656 41.597656 128.148438 41.011719 128.800781 C 40.332031 129.550781 40.042969 130.238281 40.042969 130.894531 C 40.042969 131.230469 40.117188 131.558594 40.273438 131.910156 C 40.429688 132.253906 40.671875 132.621094 41.011719 132.992188 C 41.683594 133.738281 42.738281 134.511719 44.132812 135.253906 C 46.832031 136.695312 50.792969 138.039062 55.695312 139.167969 C 54.867188 138.875 54.082031 138.570312 53.34375 138.257812 C 50.363281 136.988281 48.140625 135.582031 46.835938 133.953125 C 46.097656 133.023438 45.660156 131.984375 45.660156 130.894531 C 45.660156 129.808594 46.097656 128.769531 46.835938 127.839844 C 47.578125 126.902344 48.628906 126.050781 49.941406 125.246094 C 51.496094 124.300781 53.429688 123.421875 55.695312 122.621094 " fill-opacity="1" fill-rule="nonzero"/><path fill="#7d7d7e" d="M 136.972656 139.167969 C 139.234375 138.367188 141.167969 137.492188 142.722656 136.542969 C 144.039062 135.738281 145.085938 134.886719 145.828125 133.953125 C 146.570312 133.023438 147.003906 131.984375 147.003906 130.894531 C 147.003906 129.808594 146.570312 128.769531 145.828125 127.839844 C 144.527344 126.207031 142.300781 124.804688 139.324219 123.53125 C 138.582031 123.21875 137.796875 122.914062 136.96875 122.621094 C 141.871094 123.753906 145.832031 125.09375 148.53125 126.539062 C 149.925781 127.28125 150.980469 128.050781 151.652344 128.800781 C 152.332031 129.550781 152.621094 130.238281 152.621094 130.894531 C 152.621094 131.554688 152.332031 132.238281 151.652344 132.992188 C 151.066406 133.644531 150.183594 134.320312 149.039062 134.972656 C 147.035156 136.121094 144.230469 137.214844 140.785156 138.191406 C 139.589844 138.53125 138.3125 138.859375 136.972656 139.167969 " fill-opacity="1" fill-rule="nonzero"/><path fill="#464444" d="M 96.332031 144.519531 C 96.136719 144.519531 95.941406 144.441406 95.804688 144.300781 C 95.667969 144.164062 95.589844 143.972656 95.589844 143.773438 C 95.589844 143.578125 95.667969 143.386719 95.804688 143.25 C 95.941406 143.109375 96.136719 143.03125 96.332031 143.03125 C 105.347656 143.03125 113.796875 142.410156 121.074219 141.332031 C 128.347656 140.253906 134.453125 138.710938 138.738281 136.890625 C 141.597656 135.683594 143.636719 134.332031 144.660156 133.03125 C 145.25 132.28125 145.511719 131.585938 145.515625 130.894531 C 145.511719 130.207031 145.25 129.507812 144.660156 128.761719 C 144.074219 128.019531 143.160156 127.253906 141.949219 126.519531 C 139.523438 125.035156 135.921875 123.660156 131.449219 122.507812 C 122.507812 120.199219 110.085938 118.757812 96.367188 118.757812 C 96.359375 118.757812 96.351562 118.757812 96.34375 118.757812 C 96.339844 118.757812 96.335938 118.757812 96.332031 118.757812 C 96.136719 118.757812 95.941406 118.679688 95.804688 118.539062 C 95.667969 118.402344 95.589844 118.210938 95.589844 118.015625 C 95.589844 117.816406 95.667969 117.628906 95.804688 117.488281 C 95.941406 117.347656 96.136719 117.273438 96.332031 117.273438 C 96.382812 117.273438 96.433594 117.273438 96.480469 117.273438 C 114.5625 117.285156 130.664062 119.179688 141.191406 122.167969 C 144.710938 123.167969 147.613281 124.289062 149.78125 125.527344 C 151.015625 126.238281 152.019531 126.988281 152.757812 127.800781 C 153.601562 128.726562 154.109375 129.777344 154.109375 130.894531 C 154.109375 132.015625 153.601562 133.066406 152.757812 133.992188 C 151.910156 134.921875 150.726562 135.765625 149.234375 136.566406 C 146.25 138.15625 142.023438 139.550781 136.824219 140.726562 C 126.425781 143.074219 112.128906 144.519531 96.332031 144.519531 M 147.003906 130.894531 C 147.003906 131.984375 146.570312 133.023438 145.828125 133.953125 C 145.085938 134.886719 144.039062 135.738281 142.722656 136.542969 C 141.167969 137.492188 139.234375 138.367188 136.972656 139.167969 C 138.3125 138.859375 139.589844 138.53125 140.785156 138.191406 C 144.230469 137.214844 147.035156 136.121094 149.039062 134.972656 C 150.183594 134.320312 151.066406 133.644531 151.652344 132.992188 C 152.332031 132.238281 152.621094 131.554688 152.621094 130.894531 C 152.621094 130.238281 152.332031 129.550781 151.652344 128.800781 C 150.980469 128.050781 149.925781 127.28125 148.53125 126.539062 C 145.832031 125.09375 141.871094 123.753906 136.96875 122.621094 C 137.796875 122.914062 138.582031 123.21875 139.324219 123.53125 C 142.300781 124.804688 144.527344 126.207031 145.828125 127.839844 C 146.570312 128.769531 147.003906 129.808594 147.003906 130.894531 " fill-opacity="1" fill-rule="nonzero"/><path fill="#7d7d7e" d="M 65.632812 135.449219 C 63.757812 134.890625 62.191406 134.28125 61.003906 133.640625 C 60.074219 133.148438 59.378906 132.636719 58.949219 132.160156 C 58.730469 131.921875 58.582031 131.695312 58.488281 131.488281 C 58.394531 131.273438 58.351562 131.085938 58.351562 130.894531 C 58.351562 130.707031 58.394531 130.515625 58.488281 130.308594 C 58.660156 129.914062 59.046875 129.457031 59.660156 128.992188 C 60.738281 128.171875 62.496094 127.34375 64.78125 126.605469 C 65.058594 126.515625 65.339844 126.429688 65.632812 126.339844 C 65.308594 126.511719 65.003906 126.679688 64.714844 126.855469 C 63.804688 127.414062 63.070312 128.003906 62.542969 128.671875 C 62.015625 129.332031 61.691406 130.089844 61.691406 130.894531 C 61.691406 131.699219 62.015625 132.457031 62.542969 133.121094 C 63.242188 133.992188 64.289062 134.757812 65.632812 135.449219 " fill-opacity="1" fill-rule="nonzero"/><path fill="#464444" d="M 96.332031 140.382812 C 89.726562 140.382812 83.503906 140.011719 78.042969 139.355469 C 72.585938 138.695312 67.890625 137.753906 64.324219 136.601562 C 61.941406 135.828125 60.066406 134.972656 58.761719 133.984375 C 58.015625 133.417969 57.453125 132.804688 57.128906 132.09375 C 56.960938 131.71875 56.863281 131.308594 56.863281 130.894531 C 56.863281 130.484375 56.960938 130.074219 57.128906 129.695312 C 57.300781 129.320312 57.542969 128.964844 57.84375 128.636719 C 58.445312 127.972656 59.273438 127.386719 60.300781 126.835938 C 62.359375 125.738281 65.242188 124.789062 68.785156 123.988281 C 75.871094 122.386719 85.59375 121.410156 96.332031 121.410156 C 96.136719 121.410156 95.941406 121.488281 95.804688 121.625 C 95.667969 121.765625 95.589844 121.957031 95.589844 122.152344 C 95.589844 122.347656 95.667969 122.539062 95.804688 122.679688 C 95.941406 122.816406 96.136719 122.898438 96.332031 122.898438 C 96.332031 122.898438 96.332031 122.898438 96.328125 122.898438 C 90.222656 122.898438 84.496094 123.316406 79.570312 124.046875 C 74.644531 124.777344 70.515625 125.824219 67.636719 127.046875 C 65.714844 127.855469 64.359375 128.761719 63.710938 129.597656 C 63.332031 130.074219 63.183594 130.492188 63.183594 130.894531 C 63.183594 131.300781 63.332031 131.71875 63.710938 132.195312 C 64.082031 132.671875 64.683594 133.171875 65.488281 133.664062 C 67.101562 134.648438 69.527344 135.582031 72.550781 136.359375 C 78.589844 137.917969 87.007812 138.894531 96.300781 138.894531 C 96.304688 138.894531 96.3125 138.894531 96.320312 138.894531 C 96.324219 138.894531 96.328125 138.894531 96.332031 138.894531 C 96.136719 138.894531 95.941406 138.976562 95.804688 139.113281 C 95.667969 139.253906 95.589844 139.445312 95.589844 139.640625 C 95.589844 139.835938 95.667969 140.027344 95.804688 140.167969 C 95.941406 140.304688 96.136719 140.382812 96.332031 140.382812 M 65.632812 126.339844 C 65.339844 126.429688 65.058594 126.515625 64.78125 126.605469 C 62.496094 127.34375 60.738281 128.171875 59.660156 128.992188 C 59.046875 129.457031 58.660156 129.914062 58.488281 130.308594 C 58.394531 130.515625 58.351562 130.707031 58.351562 130.894531 C 58.351562 131.085938 58.394531 131.273438 58.488281 131.488281 C 58.582031 131.695312 58.730469 131.921875 58.949219 132.160156 C 59.378906 132.636719 60.074219 133.148438 61.003906 133.640625 C 62.191406 134.28125 63.757812 134.890625 65.632812 135.449219 C 64.289062 134.757812 63.242188 133.992188 62.542969 133.121094 C 62.015625 132.457031 61.691406 131.699219 61.691406 130.894531 C 61.691406 130.089844 62.015625 129.332031 62.542969 128.671875 C 63.070312 128.003906 63.804688 127.414062 64.714844 126.855469 C 65.003906 126.679688 65.308594 126.511719 65.632812 126.339844 " fill-opacity="1" fill-rule="nonzero"/><path fill="#7d7d7e" d="M 127.035156 135.449219 C 127.355469 135.28125 127.664062 135.109375 127.949219 134.933594 C 128.859375 134.378906 129.59375 133.785156 130.121094 133.121094 C 130.648438 132.457031 130.972656 131.699219 130.972656 130.894531 C 130.972656 130.089844 130.648438 129.332031 130.121094 128.671875 C 129.421875 127.796875 128.378906 127.035156 127.035156 126.34375 C 128.90625 126.902344 130.46875 127.511719 131.65625 128.148438 C 132.585938 128.644531 133.28125 129.15625 133.710938 129.632812 C 133.929688 129.871094 134.078125 130.097656 134.171875 130.308594 C 134.265625 130.515625 134.304688 130.707031 134.308594 130.894531 C 134.304688 131.085938 134.265625 131.273438 134.171875 131.488281 C 134 131.875 133.617188 132.335938 133 132.800781 C 131.921875 133.621094 130.164062 134.449219 127.878906 135.1875 C 127.605469 135.273438 127.320312 135.363281 127.035156 135.449219 " fill-opacity="1" fill-rule="nonzero"/><path fill="#464444" d="M 96.332031 140.382812 C 96.136719 140.382812 95.941406 140.304688 95.804688 140.167969 C 95.667969 140.027344 95.589844 139.835938 95.589844 139.640625 C 95.589844 139.445312 95.667969 139.253906 95.804688 139.113281 C 95.941406 138.976562 96.136719 138.894531 96.332031 138.894531 C 96.335938 138.894531 96.335938 138.894531 96.339844 138.894531 C 102.445312 138.894531 108.167969 138.476562 113.09375 137.746094 C 118.019531 137.015625 122.148438 135.972656 125.027344 134.746094 C 126.949219 133.933594 128.304688 133.027344 128.953125 132.195312 C 129.332031 131.71875 129.480469 131.300781 129.484375 130.894531 C 129.480469 130.492188 129.332031 130.074219 128.953125 129.597656 C 128.582031 129.121094 127.980469 128.617188 127.175781 128.128906 C 125.5625 127.140625 123.132812 126.210938 120.113281 125.433594 C 114.074219 123.875 105.660156 122.898438 96.371094 122.898438 C 96.363281 122.898438 96.355469 122.898438 96.34375 122.898438 C 96.339844 122.898438 96.335938 122.898438 96.332031 122.898438 C 96.136719 122.898438 95.941406 122.816406 95.804688 122.679688 C 95.667969 122.539062 95.589844 122.347656 95.589844 122.152344 C 95.589844 121.957031 95.667969 121.765625 95.804688 121.625 C 95.941406 121.488281 96.136719 121.410156 96.332031 121.410156 C 102.9375 121.410156 109.160156 121.78125 114.621094 122.4375 C 120.078125 123.09375 124.769531 124.035156 128.339844 125.191406 C 130.71875 125.964844 132.59375 126.820312 133.898438 127.804688 C 134.640625 128.371094 135.207031 128.984375 135.53125 129.695312 C 135.699219 130.074219 135.796875 130.484375 135.796875 130.894531 C 135.796875 131.308594 135.699219 131.71875 135.53125 132.09375 C 135.359375 132.472656 135.117188 132.828125 134.816406 133.15625 C 134.214844 133.820312 133.386719 134.40625 132.359375 134.957031 C 130.300781 136.050781 127.417969 137.003906 123.875 137.804688 C 116.792969 139.402344 107.070312 140.382812 96.332031 140.382812 M 130.972656 130.894531 C 130.972656 131.699219 130.648438 132.457031 130.121094 133.121094 C 129.59375 133.785156 128.859375 134.378906 127.949219 134.933594 C 127.664062 135.109375 127.355469 135.28125 127.035156 135.449219 C 127.320312 135.363281 127.605469 135.273438 127.878906 135.1875 C 130.164062 134.449219 131.921875 133.621094 133 132.800781 C 133.617188 132.335938 134 131.875 134.171875 131.488281 C 134.265625 131.273438 134.304688 131.085938 134.308594 130.894531 C 134.304688 130.707031 134.265625 130.515625 134.171875 130.308594 C 134.078125 130.097656 133.929688 129.871094 133.710938 129.632812 C 133.28125 129.15625 132.585938 128.644531 131.65625 128.148438 C 130.46875 127.511719 128.90625 126.902344 127.035156 126.34375 C 128.378906 127.035156 129.421875 127.796875 130.121094 128.671875 C 130.648438 129.332031 130.972656 130.089844 130.972656 130.894531 " fill-opacity="1" fill-rule="nonzero"/><path fill="#7d7d7e" d="M 78.160156 132.179688 C 78.0625 132.128906 77.96875 132.082031 77.878906 132.03125 C 77.410156 131.785156 77.078125 131.53125 76.890625 131.324219 C 76.796875 131.222656 76.738281 131.132812 76.707031 131.0625 C 76.675781 130.992188 76.667969 130.945312 76.667969 130.894531 C 76.667969 130.847656 76.675781 130.800781 76.707031 130.730469 C 76.765625 130.597656 76.921875 130.394531 77.21875 130.171875 C 77.453125 129.988281 77.773438 129.800781 78.160156 129.613281 C 77.894531 129.984375 77.71875 130.425781 77.71875 130.894531 C 77.71875 131.367188 77.890625 131.804688 78.160156 132.179688 " fill-opacity="1" fill-rule="nonzero"/><path fill="#464444" d="M 96.332031 136.246094 C 92.835938 136.246094 89.542969 136.050781 86.648438 135.703125 C 83.753906 135.351562 81.265625 134.855469 79.351562 134.238281 C 78.078125 133.824219 77.058594 133.363281 76.320312 132.804688 C 75.898438 132.484375 75.554688 132.125 75.347656 131.671875 C 75.242188 131.433594 75.179688 131.167969 75.179688 130.894531 C 75.179688 130.625 75.242188 130.359375 75.347656 130.121094 C 75.457031 129.878906 75.609375 129.664062 75.785156 129.46875 C 76.140625 129.074219 76.609375 128.75 77.175781 128.445312 C 78.304688 127.84375 79.847656 127.335938 81.734375 126.910156 C 85.503906 126.058594 90.648438 125.542969 96.332031 125.542969 C 96.136719 125.542969 95.941406 125.621094 95.804688 125.757812 C 95.667969 125.898438 95.589844 126.089844 95.589844 126.285156 C 95.589844 126.480469 95.667969 126.671875 95.804688 126.808594 C 95.941406 126.949219 96.136719 127.027344 96.332031 127.027344 C 93.128906 127.027344 90.125 127.246094 87.546875 127.632812 C 84.96875 128.011719 82.816406 128.5625 81.34375 129.1875 C 80.359375 129.601562 79.691406 130.066406 79.410156 130.429688 C 79.25 130.636719 79.210938 130.777344 79.207031 130.894531 C 79.210938 131.015625 79.246094 131.152344 79.410156 131.363281 C 79.570312 131.566406 79.855469 131.808594 80.253906 132.054688 C 81.058594 132.546875 82.3125 133.03125 83.882812 133.433594 C 87.023438 134.246094 91.425781 134.757812 96.289062 134.761719 C 96.296875 134.761719 96.308594 134.761719 96.320312 134.761719 C 96.324219 134.761719 96.328125 134.761719 96.332031 134.761719 C 96.136719 134.761719 95.941406 134.839844 95.804688 134.980469 C 95.667969 135.117188 95.589844 135.308594 95.589844 135.503906 C 95.589844 135.699219 95.667969 135.890625 95.804688 136.03125 C 95.941406 136.167969 96.136719 136.246094 96.332031 136.246094 M 78.160156 129.613281 C 77.773438 129.800781 77.453125 129.988281 77.21875 130.171875 C 76.921875 130.394531 76.765625 130.597656 76.707031 130.730469 C 76.675781 130.800781 76.667969 130.847656 76.667969 130.894531 C 76.667969 130.945312 76.675781 130.992188 76.707031 131.0625 C 76.738281 131.132812 76.796875 131.222656 76.890625 131.324219 C 77.078125 131.53125 77.410156 131.785156 77.878906 132.03125 C 77.96875 132.082031 78.0625 132.128906 78.160156 132.179688 C 77.890625 131.804688 77.71875 131.367188 77.71875 130.894531 C 77.71875 130.425781 77.894531 129.984375 78.160156 129.613281 " fill-opacity="1" fill-rule="nonzero"/><path fill="#7d7d7e" d="M 114.5 132.179688 C 114.769531 131.808594 114.945312 131.367188 114.945312 130.894531 C 114.945312 130.421875 114.765625 129.980469 114.5 129.609375 C 114.601562 129.660156 114.699219 129.707031 114.789062 129.757812 C 115.257812 130.003906 115.589844 130.257812 115.777344 130.464844 C 115.871094 130.570312 115.929688 130.660156 115.960938 130.730469 C 115.992188 130.800781 116 130.847656 116 130.894531 C 116 130.945312 115.992188 130.992188 115.960938 131.0625 C 115.902344 131.191406 115.746094 131.398438 115.449219 131.621094 C 115.210938 131.800781 114.894531 131.988281 114.5 132.179688 " fill-opacity="1" fill-rule="nonzero"/><path fill="#464444" d="M 96.332031 136.246094 C 96.136719 136.246094 95.941406 136.167969 95.804688 136.03125 C 95.667969 135.890625 95.589844 135.699219 95.589844 135.503906 C 95.589844 135.308594 95.667969 135.117188 95.804688 134.980469 C 95.941406 134.839844 96.136719 134.761719 96.332031 134.761719 C 96.335938 134.761719 96.335938 134.761719 96.335938 134.761719 C 99.539062 134.761719 102.539062 134.539062 105.117188 134.15625 C 107.691406 133.777344 109.847656 133.226562 111.320312 132.601562 C 112.304688 132.1875 112.972656 131.722656 113.253906 131.363281 C 113.414062 131.152344 113.453125 131.015625 113.457031 130.894531 C 113.453125 130.777344 113.414062 130.636719 113.25 130.429688 C 113.09375 130.222656 112.808594 129.980469 112.40625 129.734375 C 111.605469 129.242188 110.351562 128.757812 108.777344 128.355469 C 105.640625 127.542969 101.234375 127.03125 96.371094 127.027344 C 96.363281 127.027344 96.351562 127.027344 96.34375 127.027344 C 96.339844 127.027344 96.335938 127.027344 96.332031 127.027344 C 96.136719 127.027344 95.941406 126.949219 95.804688 126.808594 C 95.667969 126.671875 95.589844 126.480469 95.589844 126.285156 C 95.589844 126.089844 95.667969 125.898438 95.804688 125.757812 C 95.941406 125.621094 96.136719 125.542969 96.332031 125.542969 C 99.828125 125.542969 103.121094 125.738281 106.015625 126.085938 C 108.910156 126.4375 111.398438 126.933594 113.3125 127.550781 C 114.589844 127.96875 115.609375 128.425781 116.347656 128.988281 C 116.769531 129.308594 117.113281 129.667969 117.316406 130.121094 C 117.425781 130.359375 117.488281 130.625 117.488281 130.894531 C 117.488281 131.167969 117.425781 131.433594 117.316406 131.671875 C 117.207031 131.914062 117.058594 132.128906 116.878906 132.324219 C 116.523438 132.714844 116.058594 133.042969 115.492188 133.347656 C 114.359375 133.945312 112.816406 134.453125 110.929688 134.878906 C 107.160156 135.730469 102.015625 136.246094 96.332031 136.246094 M 114.945312 130.894531 C 114.945312 131.367188 114.769531 131.808594 114.5 132.179688 C 114.894531 131.988281 115.210938 131.800781 115.449219 131.621094 C 115.746094 131.398438 115.902344 131.191406 115.960938 131.0625 C 115.992188 130.992188 116 130.945312 116 130.894531 C 116 130.847656 115.992188 130.800781 115.960938 130.730469 C 115.929688 130.660156 115.871094 130.570312 115.777344 130.464844 C 115.589844 130.257812 115.257812 130.003906 114.789062 129.757812 C 114.699219 129.707031 114.601562 129.660156 114.5 129.609375 C 114.765625 129.980469 114.945312 130.421875 114.945312 130.894531 " fill-opacity="1" fill-rule="nonzero"/><path fill="#ffffff" d="M 89.539062 128.046875 C 84.753906 127.296875 77.828125 123.980469 74.085938 117.78125 C 69.140625 109.597656 74.550781 104.015625 78.566406 101.722656 C 83.558594 98.875 88.507812 96.414062 93.488281 93.988281 C 97.382812 92.101562 103.597656 89.121094 106.386719 83.488281 C 111.1875 73.757812 104.53125 73.605469 100.5 73.242188 C 97.894531 73.007812 87.867188 72.863281 89.460938 64.101562 C 90.519531 58.335938 97.808594 53.476562 100.5 51.699219 C 104.777344 48.867188 109.414062 46.113281 113.277344 41.324219 C 116.5625 37.261719 118.539062 30.859375 116.347656 24.117188 C 114.421875 18.21875 107.351562 18.117188 104.703125 14.078125 C 113.042969 14.320312 129.480469 23.183594 130.988281 40.433594 C 132.015625 52.117188 126.464844 54.191406 121.167969 56.855469 C 118.019531 58.453125 111.769531 63.390625 112.316406 68.699219 C 112.859375 74.023438 119.921875 69.023438 121.816406 75.851562 C 124.226562 84.53125 120.820312 94.710938 117.023438 98.636719 C 113.726562 102.046875 110.671875 104.179688 106.921875 105.765625 C 101.679688 107.988281 95.496094 107.75 90.523438 111.703125 C 82.957031 117.730469 90.140625 130.972656 96.289062 128.695312 C 96.488281 128.550781 96.289062 128.695312 96.488281 128.550781 L 89.539062 128.046875 " fill-opacity="1" fill-rule="nonzero"/><g clip-path="url(#648a52de23)"><path fill="#393536" d="M 89.539062 128.046875 L 89.652344 127.308594 C 87.371094 126.957031 84.519531 125.96875 81.808594 124.320312 C 79.09375 122.675781 76.519531 120.371094 74.726562 117.394531 C 73.371094 115.15625 72.855469 113.179688 72.851562 111.4375 C 72.855469 109.253906 73.671875 107.402344 74.847656 105.867188 C 76.027344 104.335938 77.570312 103.148438 78.933594 102.367188 C 83.90625 99.535156 88.839844 97.082031 93.816406 94.660156 C 95.761719 93.714844 98.328125 92.480469 100.78125 90.75 C 103.234375 89.023438 105.582031 86.789062 107.050781 83.820312 C 108.265625 81.351562 108.800781 79.441406 108.804688 77.882812 C 108.804688 76.699219 108.476562 75.710938 107.894531 74.964844 C 107.460938 74.402344 106.910156 73.984375 106.308594 73.675781 C 105.40625 73.207031 104.394531 72.960938 103.394531 72.800781 C 102.398438 72.644531 101.410156 72.578125 100.566406 72.503906 C 99.933594 72.445312 98.960938 72.398438 97.824219 72.25 C 96.132812 72.03125 94.113281 71.570312 92.597656 70.605469 C 91.839844 70.125 91.207031 69.523438 90.757812 68.765625 C 90.3125 68.007812 90.035156 67.082031 90.035156 65.886719 C 90.035156 65.382812 90.085938 64.835938 90.191406 64.234375 C 90.433594 62.925781 91.035156 61.628906 91.871094 60.398438 C 93.117188 58.546875 94.878906 56.847656 96.578125 55.460938 C 98.277344 54.070312 99.90625 52.984375 100.910156 52.320312 C 105.164062 49.5 109.894531 46.703125 113.855469 41.789062 C 116.285156 38.785156 118.015625 34.585938 118.015625 29.886719 C 118.015625 27.949219 117.71875 25.933594 117.058594 23.890625 L 117.058594 23.886719 C 116.535156 22.28125 115.644531 21.050781 114.59375 20.082031 C 113.015625 18.628906 111.101562 17.730469 109.390625 16.820312 C 108.535156 16.363281 107.730469 15.90625 107.035156 15.398438 C 106.339844 14.890625 105.761719 14.332031 105.328125 13.671875 L 104.703125 14.078125 L 104.679688 14.824219 C 106.644531 14.878906 109.164062 15.453125 111.832031 16.558594 C 115.835938 18.21875 120.183594 21.066406 123.644531 25.0625 C 127.109375 29.0625 129.695312 34.199219 130.246094 40.496094 C 130.328125 41.429688 130.367188 42.296875 130.367188 43.105469 C 130.367188 45.378906 130.058594 47.164062 129.542969 48.605469 C 128.761719 50.761719 127.527344 52.164062 126.007812 53.300781 C 124.484375 54.429688 122.671875 55.265625 120.832031 56.191406 L 120.828125 56.191406 C 119.230469 57.003906 116.96875 58.570312 115.046875 60.621094 C 114.089844 61.644531 113.21875 62.792969 112.582031 64.035156 C 111.945312 65.28125 111.539062 66.632812 111.539062 68.039062 C 111.535156 68.285156 111.550781 68.527344 111.574219 68.773438 C 111.648438 69.523438 111.851562 70.152344 112.175781 70.65625 C 112.457031 71.101562 112.839844 71.4375 113.25 71.671875 C 113.972656 72.082031 114.765625 72.222656 115.550781 72.332031 C 116.730469 72.492188 117.914062 72.585938 118.863281 73.042969 C 119.335938 73.269531 119.757812 73.578125 120.136719 74.046875 C 120.511719 74.511719 120.847656 75.148438 121.097656 76.054688 C 121.636719 77.992188 121.875 80.027344 121.875 82.046875 C 121.878906 85.390625 121.222656 88.707031 120.214844 91.542969 C 119.207031 94.375 117.839844 96.730469 116.488281 98.121094 C 113.242188 101.476562 110.292969 103.53125 106.632812 105.078125 C 104.117188 106.148438 101.300781 106.644531 98.441406 107.363281 C 95.585938 108.085938 92.675781 109.042969 90.0625 111.121094 C 88.808594 112.121094 87.914062 113.316406 87.34375 114.605469 C 86.777344 115.894531 86.523438 117.269531 86.523438 118.632812 C 86.527344 121.375 87.515625 124.082031 89.019531 126.152344 C 89.773438 127.1875 90.664062 128.0625 91.644531 128.6875 C 92.625 129.320312 93.714844 129.699219 94.84375 129.699219 C 95.410156 129.699219 95.984375 129.601562 96.546875 129.394531 C 96.613281 129.371094 96.667969 129.34375 96.722656 129.300781 C 96.773438 129.265625 96.800781 129.246094 96.8125 129.238281 L 96.820312 129.230469 L 96.824219 129.230469 L 96.421875 128.667969 L 96.820312 129.230469 L 96.824219 129.230469 L 96.421875 128.667969 L 96.820312 129.230469 L 96.390625 128.625 L 96.816406 129.234375 L 96.820312 129.230469 L 96.390625 128.625 L 96.816406 129.234375 L 96.390625 128.625 L 96.808594 129.238281 L 96.816406 129.234375 L 96.390625 128.625 L 96.808594 129.238281 L 96.394531 128.628906 L 96.792969 129.25 L 96.808594 129.238281 L 96.394531 128.628906 L 96.792969 129.25 L 96.390625 128.625 L 96.753906 129.273438 L 96.792969 129.25 L 96.390625 128.625 L 96.753906 129.273438 L 96.390625 128.625 L 96.671875 129.3125 C 96.730469 129.289062 96.742188 129.28125 96.753906 129.273438 L 96.390625 128.625 L 96.671875 129.3125 C 96.722656 129.292969 96.78125 129.261719 96.824219 129.226562 C 96.824219 129.226562 96.824219 129.226562 96.925781 129.15625 C 97.179688 128.972656 97.289062 128.652344 97.207031 128.351562 C 97.121094 128.050781 96.855469 127.832031 96.542969 127.808594 L 89.59375 127.304688 L 89.539062 128.046875 L 89.652344 127.308594 L 89.539062 128.046875 L 89.484375 128.789062 L 96.4375 129.292969 L 96.488281 128.550781 L 96.054688 127.949219 C 95.953125 128.019531 95.953125 128.019531 95.953125 128.019531 L 96.390625 128.625 L 96.035156 127.96875 L 95.988281 127.996094 L 95.953125 128.019531 C 95.945312 128.023438 95.929688 128.039062 95.855469 128.09375 L 96.289062 128.695312 L 96.03125 128 C 95.632812 128.144531 95.242188 128.210938 94.84375 128.210938 C 94.058594 128.210938 93.246094 127.945312 92.449219 127.4375 C 91.253906 126.675781 90.128906 125.375 89.320312 123.808594 C 88.507812 122.242188 88.011719 120.414062 88.015625 118.632812 C 88.015625 117.449219 88.230469 116.285156 88.707031 115.207031 C 89.183594 114.128906 89.921875 113.136719 90.988281 112.285156 C 93.347656 110.410156 96.015625 109.511719 98.804688 108.808594 C 101.589844 108.101562 104.484375 107.605469 107.214844 106.449219 C 111.050781 104.832031 114.21875 102.617188 117.558594 99.15625 C 119.121094 97.53125 120.550781 95.027344 121.617188 92.039062 C 122.679688 89.050781 123.367188 85.582031 123.367188 82.046875 C 123.367188 79.90625 123.113281 77.746094 122.535156 75.65625 C 122.277344 74.734375 121.925781 73.980469 121.492188 73.371094 C 120.738281 72.300781 119.726562 71.710938 118.734375 71.394531 C 117.988281 71.15625 117.242188 71.050781 116.558594 70.960938 C 116.042969 70.894531 115.558594 70.839844 115.132812 70.757812 C 114.492188 70.636719 114.015625 70.457031 113.703125 70.175781 C 113.542969 70.03125 113.414062 69.863281 113.300781 69.617188 C 113.191406 69.375 113.101562 69.050781 113.054688 68.621094 C 113.035156 68.429688 113.027344 68.234375 113.023438 68.039062 C 113.023438 66.921875 113.351562 65.804688 113.910156 64.714844 C 114.742188 63.085938 116.09375 61.546875 117.519531 60.292969 C 118.945312 59.035156 120.441406 58.058594 121.503906 57.519531 L 121.5 57.519531 C 123.90625 56.304688 126.484375 55.183594 128.5 53.085938 C 129.507812 52.035156 130.355469 50.742188 130.945312 49.109375 C 131.53125 47.476562 131.855469 45.511719 131.855469 43.105469 C 131.855469 42.25 131.816406 41.339844 131.730469 40.367188 C 131.34375 35.945312 129.996094 32.046875 128.0625 28.699219 C 125.160156 23.679688 120.953125 19.894531 116.667969 17.335938 C 114.527344 16.058594 112.367188 15.082031 110.328125 14.414062 C 108.292969 13.75 106.382812 13.382812 104.726562 13.335938 C 104.445312 13.328125 104.1875 13.472656 104.050781 13.71875 C 103.917969 13.960938 103.929688 14.253906 104.078125 14.484375 C 104.828125 15.625 105.859375 16.453125 106.972656 17.152344 C 108.644531 18.199219 110.519531 18.988281 112.105469 20.035156 C 112.902344 20.558594 113.621094 21.136719 114.222656 21.832031 C 114.824219 22.527344 115.308594 23.339844 115.640625 24.351562 L 115.640625 24.347656 C 116.253906 26.242188 116.527344 28.101562 116.527344 29.886719 C 116.53125 34.214844 114.921875 38.109375 112.695312 40.855469 C 108.933594 45.527344 104.390625 48.230469 100.089844 51.078125 C 98.738281 51.972656 96.203125 53.652344 93.855469 55.863281 C 92.683594 56.96875 91.550781 58.207031 90.636719 59.5625 C 89.722656 60.917969 89.019531 62.394531 88.730469 63.96875 C 88.605469 64.648438 88.546875 65.285156 88.546875 65.886719 C 88.542969 67.792969 89.160156 69.316406 90.136719 70.441406 C 90.867188 71.289062 91.777344 71.914062 92.746094 72.382812 C 94.195312 73.085938 95.78125 73.449219 97.175781 73.660156 C 98.566406 73.871094 99.785156 73.925781 100.433594 73.984375 C 101.203125 74.054688 102.039062 74.113281 102.859375 74.226562 C 104.085938 74.394531 105.257812 74.699219 106.042969 75.246094 C 106.4375 75.523438 106.742188 75.84375 106.960938 76.257812 C 107.179688 76.671875 107.3125 77.191406 107.316406 77.882812 C 107.316406 79.089844 106.878906 80.816406 105.71875 83.160156 C 104.398438 85.824219 102.25 87.894531 99.921875 89.535156 C 97.597656 91.175781 95.113281 92.378906 93.164062 93.320312 C 88.179688 95.746094 83.214844 98.214844 78.195312 101.074219 C 76.6875 101.9375 75.003906 103.230469 73.667969 104.957031 C 72.339844 106.683594 71.359375 108.867188 71.363281 111.4375 C 71.359375 113.480469 71.980469 115.742188 73.449219 118.164062 C 75.394531 121.386719 78.15625 123.84375 81.035156 125.59375 C 83.917969 127.339844 86.921875 128.390625 89.421875 128.78125 L 89.484375 128.789062 L 89.539062 128.046875 " fill-opacity="1" fill-rule="nonzero"/></g><path fill="#393536" d="M 121.285156 29.808594 L 121.355469 29.753906 L 121.285156 29.808594 L 121.355469 29.753906 L 121.285156 29.808594 C 121.300781 29.828125 121.960938 30.703125 122.609375 32.160156 C 123.265625 33.617188 123.902344 35.660156 123.902344 38.015625 C 123.902344 40.011719 123.449219 42.238281 122.152344 44.59375 C 120.855469 46.945312 118.703125 49.425781 115.257812 51.890625 C 114.925781 52.132812 114.847656 52.59375 115.085938 52.929688 C 115.324219 53.261719 115.792969 53.339844 116.125 53.101562 C 119.714844 50.535156 122.039062 47.886719 123.457031 45.3125 C 124.878906 42.734375 125.390625 40.234375 125.390625 38.015625 C 125.390625 35.347656 124.664062 33.082031 123.9375 31.476562 C 123.210938 29.875 122.488281 28.933594 122.460938 28.898438 C 122.210938 28.574219 121.746094 28.515625 121.417969 28.765625 C 121.089844 29.015625 121.03125 29.484375 121.285156 29.808594 " fill-opacity="1" fill-rule="nonzero"/><path fill="#393536" d="M 112.601562 79.273438 L 112.667969 79.242188 L 112.601562 79.273438 L 112.667969 79.242188 L 112.601562 79.273438 C 112.628906 79.328125 113.488281 81.140625 113.484375 83.722656 C 113.480469 85.894531 112.902344 88.59375 110.714844 91.378906 C 108.523438 94.15625 104.691406 97.03125 98.128906 99.402344 C 97.742188 99.542969 97.539062 99.96875 97.683594 100.355469 C 97.820312 100.742188 98.25 100.941406 98.632812 100.804688 C 105.382812 98.363281 109.476562 95.351562 111.882812 92.296875 C 114.292969 89.242188 114.980469 86.160156 114.976562 83.722656 C 114.972656 80.71875 113.96875 78.679688 113.9375 78.617188 C 113.753906 78.246094 113.308594 78.097656 112.941406 78.277344 C 112.574219 78.457031 112.421875 78.90625 112.605469 79.273438 " fill-opacity="1" fill-rule="nonzero"/><path fill="#393536" d="M 175.265625 108.054688 L 175.4375 107.890625 L 175.265625 108.054688 L 175.4375 107.890625 L 175.265625 108.054688 C 175.277344 108.066406 175.976562 108.8125 176.664062 110.113281 C 177.351562 111.417969 178.027344 113.273438 178.027344 115.527344 C 178.023438 117.667969 177.429688 120.179688 175.605469 123.003906 C 173.785156 125.824219 170.722656 128.941406 165.796875 132.210938 C 165.453125 132.4375 165.359375 132.902344 165.589844 133.242188 C 165.816406 133.585938 166.277344 133.679688 166.621094 133.449219 C 171.671875 130.097656 174.894531 126.847656 176.855469 123.808594 C 178.824219 120.777344 179.515625 117.949219 179.515625 115.527344 C 179.515625 112.929688 178.726562 110.8125 177.941406 109.347656 C 177.15625 107.886719 176.375 107.0625 176.339844 107.027344 C 176.054688 106.730469 175.585938 106.71875 175.289062 107.003906 C 174.992188 107.289062 174.980469 107.757812 175.265625 108.054688 " fill-opacity="1" fill-rule="nonzero"/><path fill="#393536" d="M 13.140625 141.785156 C 13.152344 141.828125 15.109375 149.070312 20.191406 158.164062 C 25.277344 167.257812 33.492188 178.214844 46.058594 185.625 C 46.410156 185.832031 46.867188 185.714844 47.078125 185.359375 C 47.285156 185.007812 47.167969 184.550781 46.8125 184.339844 C 34.5625 177.121094 26.492188 166.386719 21.492188 157.441406 C 18.992188 152.964844 17.257812 148.949219 16.15625 146.050781 C 15.601562 144.601562 15.207031 143.433594 14.949219 142.628906 C 14.820312 142.226562 14.726562 141.917969 14.664062 141.707031 C 14.636719 141.605469 14.613281 141.527344 14.597656 141.472656 C 14.585938 141.421875 14.578125 141.398438 14.578125 141.398438 C 14.472656 141 14.0625 140.765625 13.664062 140.875 C 13.269531 140.980469 13.035156 141.390625 13.140625 141.785156 " fill-opacity="1" fill-rule="nonzero"/><path fill="#393536" d="M 100.03125 200.851562 C 100.03125 200.851562 100.0625 200.851562 100.117188 200.851562 C 101.136719 200.851562 110.535156 200.777344 121.960938 197.960938 C 133.382812 195.140625 146.859375 189.582031 155.949219 178.511719 C 156.207031 178.195312 156.160156 177.726562 155.84375 177.464844 C 155.527344 177.207031 155.058594 177.25 154.796875 177.570312 C 146.03125 188.265625 132.855469 193.742188 121.605469 196.515625 C 110.355469 199.289062 101.054688 199.363281 100.117188 199.363281 C 100.066406 199.363281 100.039062 199.363281 100.039062 199.363281 C 99.628906 199.363281 99.292969 199.691406 99.292969 200.105469 C 99.289062 200.515625 99.621094 200.847656 100.03125 200.851562 " fill-opacity="1" fill-rule="nonzero"/></svg>